Coordinates
version=1
nRows=10
nColumns=22
inDegrees=yes

Units are S.I. units (second, meters, Newtons, ...)
If the header above contains a line with 'inDegrees', this indicates whether rotational values are in degrees (yes) or radians (no).

endheader
time	pelvis_tilt	pelvis_list	pelvis_rotation	pelvis_tx	pelvis_ty	pelvis_tz	hip_flexion_r	hip_adduction_r	hip_rotation_r	knee_angle_r	ankle_angle_r	subtalar_angle_r	hip_flexion_l	hip_adduction_l	hip_rotation_l	knee_angle_l	ankle_angle_l	subtalar_angle_l	lumbar_extension	lumbar_bending	lumbar_rotation
      3.76000000	     -0.20801079	      3.92875884	     10.00030570	     -0.03299115	      1.05382659	     -0.48623643	     26.39951823	     -1.44129663	    -21.59710071	    -24.45925191	     10.10154825	     -7.43400684	     -7.72178057	      2.12287684	     -5.09041143	    -14.11703494	     18.23022482	      2.49361671	     -6.83074023	     -2.90370880	     -9.54107250
      3.77000000	     -0.22069553	      3.71366664	      9.80730473	     -0.02421339	      1.05242338	     -0.48695929	     26.06606875	     -1.06413565	    -23.37649758	    -21.68704546	     10.31901358	     -7.01263019	     -8.10408369	      1.87105977	     -5.31290083	    -14.30967921	     18.45777530	      2.71393998	     -6.73566320	     -2.66414308	     -9.61112042
      3.78000000	     -0.26206074	      3.49419266	      9.62934862	     -0.01531899	      1.05097906	     -0.48753132	     25.74873825	     -0.62329072	    -24.99701742	    -19.00575624	     10.55529767	     -6.53826626	     -8.42997011	      1.60086336	     -5.52104855	    -14.56346258	     18.64846388	      3.00078393	     -6.60613375	     -2.42682551	     -9.69989845
      3.79000000	     -0.33070050	      3.27999572	      9.46570619	     -0.00627361	      1.04949977	     -0.48798876	     25.45685386	     -0.15173482	    -26.43988075	    -16.48139627	     10.80076816	     -6.04852864	     -8.71339108	      1.32479069	     -5.69862649	    -14.86099902	     18.81297144	      3.34476087	     -6.44007816	     -2.19946615	     -9.80285825
      3.80000000	     -0.40758577	      3.07615284	      9.31363788	      0.00295633	      1.04801891	     -0.48836329	     25.17671631	      0.32445553	    -27.70012264	    -14.17603468	     11.04807356	     -5.56531342	     -8.98095854	      1.04669708	     -5.83647042	    -15.19656015	     18.92806973	      3.76026725	     -6.25626280	     -1.98198211	     -9.91467163
      3.81000000	     -0.48488478	      2.89641000	      9.16988737	      0.01239556	      1.04655988	     -0.48870288	     24.91288917	      0.76243244	    -28.78365359	    -12.17513866	     11.28749967	     -5.13830065	     -9.25112035	      0.78504967	     -5.92081494	    -15.55651741	     18.97618643	      4.23889617	     -6.06178288	     -1.78092503	    -10.03401426
      3.82000000	     -0.54607748	      2.74582166	      9.03563023	      0.02205958	      1.04515035	     -0.48904336	     24.66330159	      1.12787277	    -29.73449512	    -10.56262292	     11.51170582	     -4.80716225	     -9.54675673	      0.54502201	     -5.94063091	    -15.93432692	     18.95707269	      4.77629401	     -5.87627750	     -1.59563536	    -10.16600555
      3.83000000	     -0.58345506	      2.62832337	      8.90674199	      0.03196207	      1.04381079	     -0.48941777	     24.43794170	      1.39021828	    -30.59616138	     -9.42305887	     11.72630086	     -4.61801716	     -9.87870698	      0.33483639	     -5.89240399	    -16.32526409	     18.87378375	      5.34402395	     -5.70474325	     -1.42134757	    -10.32321663
      3.84000000	     -0.58400969	      2.53855827	      8.77571832	      0.04212157	      1.04257270	     -0.48982490	     24.23559144	      1.53848139	    -31.42543987	     -8.80840843	     11.91359119	     -4.58452003	    -10.26612100	      0.15010278	     -5.77737559	    -16.71934617	     18.69923092	      5.96367044	     -5.56244044	     -1.25061590	    -10.48291736
      3.85000000	     -0.56985250	      2.47762402	      8.67510235	      0.05249108	      1.04141532	     -0.49033557	     24.09035643	      1.53674908	    -32.29655366	     -8.75159040	     12.07141533	     -4.71579519	    -10.66775620	     -0.00278420	     -5.53990004	    -17.14020694	     18.44229041	      6.45904654	     -5.42790257	     -1.07966283	    -10.69289090
